<svg width="41" height="40" viewBox="0 0 41 40" fill="none" xmlns="http://www.w3.org/2000/svg">
<path d="M9.62002 15.7826C9.13187 16.2708 9.13187 17.0623 9.62002 17.5504C10.1082 18.0386 10.8996 18.0386 11.3878 17.5504L9.62002 15.7826ZM18.0545 10.8837C18.5426 10.3956 18.5426 9.60413 18.0545 9.11597C17.5663 8.62781 16.7748 8.62781 16.2867 9.11597L18.0545 10.8837ZM12.8238 7.29134L33.2125 27.68L34.9802 25.9123L14.5916 5.52357L12.8238 7.29134ZM28.184 32.7085L7.79533 12.3198L6.02757 14.0876L26.4162 34.4762L28.184 32.7085ZM33.2125 32.7085C31.8239 34.0971 29.5726 34.0971 28.184 32.7085L26.4162 34.4762C28.7811 36.8411 32.6154 36.8411 34.9802 34.4762L33.2125 32.7085ZM33.2125 27.68C34.601 29.0686 34.601 31.3199 33.2125 32.7085L34.9802 34.4762C37.3451 32.1114 37.3451 28.2771 34.9802 25.9123L33.2125 27.68ZM7.79533 7.29134C9.18391 5.90277 11.4352 5.90277 12.8238 7.29134L14.5916 5.52357C12.2267 3.15869 8.39245 3.15869 6.02757 5.52357L7.79533 7.29134ZM6.02757 5.52357C3.66269 7.88846 3.66269 11.7227 6.02757 14.0876L7.79533 12.3198C6.40676 10.9312 6.40676 8.67991 7.79533 7.29134L6.02757 5.52357ZM11.3878 17.5504L18.0545 10.8837L16.2867 9.11597L9.62002 15.7826L11.3878 17.5504ZM27.6738 4.30226L28.3912 6.12774L30.718 5.21344L30.0007 3.38796L27.6738 4.30226ZM29.5484 7.28843L31.3671 8.00838L32.2873 5.68388L30.4685 4.96392L29.5484 7.28843ZM31.3671 7.18845L29.5484 7.90841L30.4685 10.2329L32.2873 9.51295L31.3671 7.18845ZM28.3912 9.0691L27.6738 10.8946L30.0007 11.8089L30.718 9.98339L28.3912 9.0691ZM28.5016 10.8946L27.7843 9.0691L25.4575 9.9834L26.1748 11.8089L28.5016 10.8946ZM26.6271 7.90841L24.8083 7.18845L23.8882 9.51295L25.7069 10.2329L26.6271 7.90841ZM24.8083 8.00838L26.6271 7.28843L25.7069 4.96392L23.8882 5.68388L24.8083 8.00838ZM27.7843 6.12774L28.5016 4.30226L26.1748 3.38796L25.4575 5.21344L27.7843 6.12774ZM26.6271 7.28843C27.1577 7.07838 27.5762 6.65747 27.7843 6.12774L25.4575 5.21344C25.5019 5.10053 25.5916 5.00958 25.7069 4.96392L26.6271 7.28843ZM24.8083 7.18845C25.1814 7.33614 25.1814 7.86069 24.8083 8.00838L23.8882 5.68388C22.1548 6.37004 22.1548 8.8268 23.8882 9.51295L24.8083 7.18845ZM27.7843 9.0691C27.5762 8.53936 27.1577 8.11846 26.6271 7.90841L25.7069 10.2329C25.5916 10.1873 25.5019 10.0963 25.4575 9.9834L27.7843 9.0691ZM27.6738 10.8946C27.821 10.5201 28.3545 10.5201 28.5016 10.8946L26.1748 11.8089C26.8585 13.5486 29.317 13.5486 30.0007 11.8089L27.6738 10.8946ZM29.5484 7.90841C29.0178 8.11846 28.5993 8.53935 28.3912 9.0691L30.718 9.98339C30.6736 10.0963 30.5839 10.1873 30.4685 10.2329L29.5484 7.90841ZM31.3671 8.00838C30.994 7.86069 30.994 7.33615 31.3671 7.18845L32.2873 9.51295C34.0207 8.82679 34.0206 6.37003 32.2873 5.68388L31.3671 8.00838ZM28.3912 6.12774C28.5993 6.65748 29.0178 7.07838 29.5484 7.28843L30.4685 4.96392C30.5839 5.00958 30.6736 5.10053 30.718 5.21344L28.3912 6.12774ZM30.0007 3.38796C29.317 1.64818 26.8584 1.64819 26.1748 3.38796L28.5016 4.30226C28.3545 4.67675 27.821 4.67675 27.6738 4.30226L30.0007 3.38796ZM34.1191 15.6728L34.3806 16.3383L36.7074 15.424L36.4459 14.7585L34.1191 15.6728ZM35.5379 17.499L36.201 17.7615L37.1211 15.437L36.458 15.1745L35.5379 17.499ZM36.201 16.9416L35.5379 17.2041L36.458 19.5286L37.1211 19.2661L36.201 16.9416ZM34.3806 18.3648L34.1191 19.0304L36.4459 19.9447L36.7074 19.2791L34.3806 18.3648ZM34.9469 19.0304L34.6853 18.3648L32.3585 19.2791L32.6201 19.9447L34.9469 19.0304ZM33.5281 17.2041L32.865 16.9416L31.9448 19.2661L32.608 19.5286L33.5281 17.2041ZM32.865 17.7615L33.5281 17.499L32.608 15.1745L31.9448 15.437L32.865 17.7615ZM34.6853 16.3383L34.9469 15.6728L32.6201 14.7585L32.3585 15.424L34.6853 16.3383ZM33.5281 17.499C34.0587 17.289 34.4772 16.8681 34.6853 16.3383L32.3585 15.424C32.4029 15.3111 32.4926 15.2202 32.608 15.1745L33.5281 17.499ZM32.865 16.9416C33.2381 17.0893 33.2381 17.6138 32.865 17.7615L31.9448 15.437C30.2115 16.1232 30.2115 18.5799 31.9448 19.2661L32.865 16.9416ZM34.6853 18.3648C34.4772 17.8351 34.0587 17.4141 33.5281 17.2041L32.608 19.5286C32.4926 19.4829 32.4029 19.392 32.3585 19.2791L34.6853 18.3648ZM34.1191 19.0304C34.2662 18.6559 34.7997 18.6559 34.9469 19.0304L32.6201 19.9447C33.3037 21.6844 35.7623 21.6844 36.4459 19.9447L34.1191 19.0304ZM35.5379 17.2041C35.0072 17.4141 34.5888 17.835 34.3806 18.3648L36.7074 19.2791C36.6631 19.392 36.5733 19.4829 36.458 19.5286L35.5379 17.2041ZM36.201 17.7615C35.8279 17.6138 35.8279 17.0893 36.201 16.9416L37.1211 19.2661C38.8545 18.5799 38.8545 16.1232 37.1211 15.437L36.201 17.7615ZM34.3806 16.3383C34.5888 16.8681 35.0072 17.289 35.5379 17.499L36.458 15.1745C36.5733 15.2202 36.6631 15.3111 36.7074 15.424L34.3806 16.3383ZM36.4459 14.7585C35.7623 13.0187 33.3037 13.0187 32.6201 14.7585L34.9469 15.6728C34.7997 16.0473 34.2662 16.0473 34.1191 15.6728L36.4459 14.7585ZM9.39532 25.969L9.65685 26.6346L11.9837 25.7203L11.7221 25.0547L9.39532 25.969ZM10.8141 27.7953L11.4772 28.0578L12.3974 25.7333L11.7342 25.4708L10.8141 27.7953ZM11.4772 27.2378L10.8141 27.5003L11.7342 29.8248L12.3974 29.5623L11.4772 27.2378ZM9.65685 28.661L9.39532 29.3266L11.7221 30.2409L11.9837 29.5753L9.65685 28.661ZM10.2231 29.3266L9.96157 28.661L7.63476 29.5753L7.8963 30.2409L10.2231 29.3266ZM8.80434 27.5003L8.14121 27.2378L7.22105 29.5623L7.88418 29.8248L8.80434 27.5003ZM8.14121 28.0578L8.80434 27.7953L7.88418 25.4708L7.22105 25.7333L8.14121 28.0578ZM9.96157 26.6346L10.2231 25.969L7.8963 25.0547L7.63476 25.7203L9.96157 26.6346ZM8.80434 27.7953C9.33497 27.5852 9.75342 27.1643 9.96157 26.6346L7.63476 25.7203C7.67913 25.6074 7.76884 25.5164 7.88418 25.4708L8.80434 27.7953ZM8.14121 27.2378C8.51431 27.3855 8.51431 27.9101 8.14121 28.0578L7.22105 25.7333C5.4877 26.4194 5.4877 28.8762 7.22105 29.5623L8.14121 27.2378ZM9.96157 28.661C9.75342 28.1313 9.33497 27.7104 8.80434 27.5003L7.88418 29.8248C7.76884 29.7792 7.67913 29.6882 7.63476 29.5753L9.96157 28.661ZM9.39532 29.3266C9.54247 28.9521 10.076 28.9521 10.2231 29.3266L7.8963 30.2409C8.57992 31.9807 11.0385 31.9807 11.7221 30.2409L9.39532 29.3266ZM10.8141 27.5003C10.2835 27.7104 9.865 28.1313 9.65685 28.661L11.9837 29.5753C11.9393 29.6882 11.8496 29.7792 11.7342 29.8248L10.8141 27.5003ZM11.4772 28.0578C11.1041 27.9101 11.1041 27.3855 11.4772 27.2378L12.3974 29.5623C14.1307 28.8762 14.1307 26.4194 12.3974 25.7333L11.4772 28.0578ZM9.65685 26.6346C9.865 27.1643 10.2835 27.5852 10.8141 27.7953L11.7342 25.4708C11.8496 25.5164 11.9393 25.6074 11.9837 25.7203L9.65685 26.6346ZM11.7221 25.0547C11.0385 23.3149 8.57992 23.3149 7.8963 25.0547L10.2231 25.969C10.076 26.3435 9.54247 26.3435 9.39532 25.969L11.7221 25.0547Z" fill="#2EB69A"/>
</svg>
