<svg width="41" height="40" viewBox="0 0 41 40" fill="none" xmlns="http://www.w3.org/2000/svg">
<path d="M4.08203 35.4162C3.39168 35.4162 2.83203 35.9758 2.83203 36.6662C2.83203 37.3566 3.39168 37.9162 4.08203 37.9162V35.4162ZM37.4154 35.4162H4.08203V37.9162H37.4154V35.4162ZM28.25 22.9162H33.25V20.4162H28.25V22.9162ZM34.5 24.1662V36.6662H37V24.1662H34.5ZM27 36.6662V24.1662H24.5V36.6662H27ZM33.25 22.9162C33.9404 22.9162 34.5 23.4758 34.5 24.1662H37C37 22.0951 35.3211 20.4162 33.25 20.4162V22.9162ZM28.25 20.4162C26.1789 20.4162 24.5 22.0951 24.5 24.1662H27C27 23.4758 27.5596 22.9162 28.25 22.9162V20.4162ZM24.5 8.33326V36.6662H27V8.33326H24.5ZM17 36.6666V8.33326H14.5V36.6666H17ZM20.75 4.58326C21.9638 4.58326 22.7485 4.58592 23.3266 4.66365C23.8688 4.73654 24.0387 4.85423 24.1339 4.94938L25.9016 3.18161C25.2646 2.54454 24.4791 2.2961 23.6597 2.18594C22.8763 2.08061 21.8932 2.08326 20.75 2.08326V4.58326ZM27 8.33326C27 7.19009 27.0027 6.20696 26.8973 5.42353C26.7872 4.60413 26.5387 3.81869 25.9016 3.18161L24.1339 4.94938C24.229 5.04454 24.3467 5.21447 24.4196 5.75664C24.4973 6.33478 24.5 7.11942 24.5 8.33326H27ZM20.75 2.08326C19.6068 2.08326 18.6237 2.08061 17.8403 2.18594C17.0209 2.2961 16.2354 2.54454 15.5983 3.18161L17.3661 4.94938C17.4613 4.85423 17.6312 4.73654 18.1734 4.66365C18.7515 4.58592 19.5362 4.58326 20.75 4.58326V2.08326ZM17 8.33326C17 7.11942 17.0027 6.33478 17.0804 5.75664C17.1533 5.21447 17.271 5.04454 17.3661 4.94938L15.5983 3.18161C14.9613 3.81869 14.7128 4.60413 14.6027 5.42352C14.4973 6.20696 14.5 7.19009 14.5 8.33326H17ZM8.25 14.5833H13.25V12.0833H8.25V14.5833ZM14.5 15.8333V36.6666H17V15.8333H14.5ZM7 36.6666V15.8333H4.5V36.6666H7ZM13.25 14.5833C13.9404 14.5833 14.5 15.1429 14.5 15.8333H17C17 13.7622 15.3211 12.0833 13.25 12.0833V14.5833ZM8.25 12.0833C6.17893 12.0833 4.5 13.7622 4.5 15.8333H7C7 15.1429 7.55964 14.5833 8.25 14.5833V12.0833Z" fill="#002599"/>
</svg>
